<svg viewBox="0 0 100 24" xmlns="http://www.w3.org/2000/svg">
    <g fill="#FFFFFF">
        <path d="M11.27 18.56c2.16 0 3.96-.9 5.4-2.7l3.54 3.39c-2.36 2.72-5.37 4.08-9.03 4.08-3.11 0-5.74-1.08-7.9-3.24C1.14 17.93.06 15.22.06 11.96c0-3.24 1.08-5.94 3.24-8.1C5.46 1.7 8.13.61 11.31.61c3.36-.001 6.16 1.19 8.4 3.57L16.2 7.51c-1.28-1.42-2.89-2.13-4.83-2.13-1.87 0-3.41.65-4.63 1.95-1.2 1.3-1.8 2.83-1.8 4.59 0 1.8.6 3.36 1.8 4.68 1.2 1.3 2.7 1.95 4.5 1.95ZM36.01 23.33c-3.3 0-6-1.08-8.1-3.24-2.1-2.18-3.15-4.88-3.15-8.1 0-3.18 1.06-5.87 3.18-8.07S32.79.61 36.13.61c3.34-.001 6.05 1.1 8.13 3.3 2.08 2.18 3.12 4.87 3.12 8.07 0 3.18-1.06 5.87-3.18 8.07-2.12 2.18-4.85 3.27-8.19 3.27Zm.03-4.77c1.8 0 3.32-.63 4.56-1.89 1.26-1.26 1.89-2.81 1.89-4.65 0-1.96-.62-3.55-1.86-4.77-1.22-1.24-2.75-1.86-4.59-1.86-1.8 0-3.32.62-4.56 1.86-1.22 1.24-1.83 2.83-1.83 4.77 0 1.84.62 3.39 1.86 4.65 1.24 1.26 2.75 1.89 4.53 1.89ZM61.67 23h-6.96V.94h8.1c3.22 0 5.84.94 7.86 2.82 2.04 1.86 3.06 4.43 3.06 7.71 0 3.72-1.11 6.57-3.33 8.55-2.2 1.98-5.11 2.97-8.73 2.97Zm.63-17.28h-2.76v12.51h1.77c5.02 0 7.53-2.2 7.53-6.6 0-1.96-.56-3.43-1.68-4.41-1.12-1-2.74-1.5-4.86-1.5Z"/>
    </g>

    <g fill="#FF4646" transform="translate(80, 0)">
        <path d="M5.08 23H.25V.95H8.8c1.38-.001 2.64.26 3.78.8 1.16.52 2.12 1.38 2.88 2.58.78 1.18 1.17 2.61 1.17 4.29 0 2.96-1.14 5.19-3.42 6.69l4.29 7.44-.09.24h-4.95l-3.6-6.27c-.18.02-.45.03-.81.03H5.08v6.24ZM7.81 5.27H5.08v7.17H7.3c1.34 0 2.41-.33 3.21-.99.82-.68 1.23-1.59 1.23-2.73s-.37-2-1.11-2.58c-.74-.58-1.68-.87-2.82-.87Z"/>
    </g>
</svg>